<?xml version="1.0" standalone="no"?>
<!DOCTYPE svg PUBLIC "-//W3C//DTD SVG 20010904//EN"
 "http://www.w3.org/TR/2001/REC-SVG-20010904/DTD/svg10.dtd">
<svg version="1.0" xmlns="http://www.w3.org/2000/svg"
 width="512.000000pt" height="512.000000pt" viewBox="0 0 512.000000 512.000000"
 preserveAspectRatio="xMidYMid meet">
<metadata>
Created by potrace 1.11, written by Peter Selinger 2001-2013
</metadata>
<g transform="translate(0.000000,512.000000) scale(0.100000,-0.100000)"
fill="#000000" stroke="none">
<path d="M2400 5116 c-3 -2 -34 -7 -70 -10 -101 -10 -287 -51 -406 -91 -122
-41 -336 -143 -434 -206 -317 -206 -563 -482 -725 -814 -55 -111 -136 -329
-149 -399 -22 -114 -37 -198 -42 -231 -10 -67 -12 -386 -3 -460 13 -108 19
-148 24 -175 3 -14 10 -47 16 -75 23 -118 105 -382 149 -480 117 -261 153
-332 232 -464 21 -34 38 -65 38 -68 0 -8 188 -289 250 -373 63 -85 239 -311
250 -320 4 -3 37 -41 75 -85 112 -130 150 -170 345 -365 181 -181 444 -419
520 -471 55 -37 123 -38 176 -3 100 68 293 242 535 483 204 204 308 317 450
491 514 627 804 1200 906 1790 22 131 25 489 4 620 -52 338 -182 645 -388 918
-80 107 -135 165 -292 312 -34 32 -140 110 -221 163 -193 125 -454 234 -655
273 -22 5 -42 9 -45 9 -3 1 -27 5 -55 10 -27 4 -59 10 -70 12 -28 6 -410 15
-415 9z"/>
</g>
</svg>
